<?xml version="1.0" standalone="no"?>
<!DOCTYPE svg PUBLIC "-//W3C//DTD SVG 20010904//EN"
 "http://www.w3.org/TR/2001/REC-SVG-20010904/DTD/svg10.dtd">
<svg version="1.0" xmlns="http://www.w3.org/2000/svg"
 width="512.000000pt" height="512.000000pt" viewBox="0 0 512.000000 512.000000"
 preserveAspectRatio="xMidYMid meet">

<g transform="translate(0.000000,512.000000) scale(0.100000,-0.100000)"
fill="#000000" stroke="none">
<path d="M240 5096 c-114 -32 -204 -128 -229 -246 -9 -41 -11 -519 -9 -1915
l3 -1860 26 -55 c14 -30 44 -73 66 -95 85 -85 183 -109 410 -103 121 3 134 5
154 25 27 26 29 75 5 102 -15 17 -36 19 -199 23 -197 4 -216 9 -269 65 -42 44
-48 74 -48 244 l0 159 1365 0 1365 0 0 -64 0 -64 -55 -4 c-59 -5 -94 -24 -129
-72 -18 -23 -22 -45 -25 -147 l-3 -119 -818 0 c-806 0 -817 0 -835 -20 -25
-28 -23 -76 4 -103 21 -22 26 -22 396 -25 l375 -3 0 -128 0 -128 -142 -5
c-163 -5 -214 -21 -281 -86 -59 -57 -77 -120 -77 -265 0 -132 11 -165 62 -193
18 -11 264 -13 1210 -14 l1187 0 34 33 c43 40 52 88 44 223 -8 134 -40 197
-133 257 -50 33 -130 47 -261 47 l-103 0 0 45 0 45 706 0 706 0 39 22 c43 24
79 85 79 134 0 26 5 31 48 47 64 22 130 81 167 148 l30 54 6 290 c4 160 7
1006 8 1880 1 1685 2 1646 -44 1721 -48 76 -117 128 -200 150 -71 19 -4566 19
-4635 0z m4644 -170 c77 -58 76 -55 76 -388 l0 -298 -2400 0 -2400 0 0 295 c0
316 1 325 52 372 61 57 -122 53 2359 50 l2276 -2 37 -29z m76 -2086 l0 -1250
-50 0 -50 0 0 205 c0 227 -5 252 -59 297 -23 20 -48 29 -91 34 l-60 7 0 72 0
72 60 7 c43 5 68 14 91 34 54 45 59 70 59 299 0 233 -6 258 -69 300 -33 22
-41 23 -281 23 -226 0 -250 -2 -271 -18 -30 -25 -30 -75 0 -105 21 -21 30 -22
246 -25 l225 -3 0 -180 0 -179 -942 2 -943 3 -3 177 -2 177 514 3 515 3 22 22
c30 30 30 80 0 105 -22 17 -53 18 -560 18 l-536 0 -37 -25 c-63 -42 -70 -79
-66 -323 3 -196 4 -213 24 -239 30 -40 74 -63 133 -70 l51 -6 0 -72 0 -72 -60
-7 c-51 -6 -66 -13 -99 -44 -50 -48 -56 -83 -48 -314 l6 -178 -1265 0 -1264 0
0 1250 0 1250 2405 0 2405 0 0 -1250z m-460 -635 l0 -75 -735 0 -735 0 0 75 0
75 735 0 735 0 0 -75z m210 -405 l0 -180 -945 0 -945 0 0 173 c0 96 3 177 7
180 3 4 429 7 945 7 l938 0 0 -180z m-210 -410 l0 -80 -735 0 -735 0 0 80 0
80 735 0 735 0 0 -80z m460 -115 c0 -185 -10 -222 -70 -265 l-30 -21 0 101 c0
81 -4 108 -20 140 -25 49 -81 80 -145 80 l-45 0 0 65 0 65 155 0 155 0 0 -165z
m-250 -295 l0 -180 -945 0 -945 0 0 180 0 180 945 0 945 0 0 -180z m-2035
-200 c4 -23 19 -55 33 -72 44 -52 72 -58 282 -58 l190 0 0 -45 0 -45 -620 0
-620 0 0 130 0 130 364 0 364 0 7 -40z m924 -388 c59 -29 76 -62 80 -158 l3
-84 -1121 0 -1121 0 0 80 c0 108 26 155 95 173 11 2 472 5 1025 6 938 1 1007
0 1039 -17z"/>
<path d="M465 4802 c-84 -40 -128 -109 -128 -202 0 -146 135 -247 277 -206
178 52 211 289 55 393 -55 36 -145 42 -204 15z m135 -152 c37 -37 21 -94 -33
-113 -40 -15 -95 40 -80 80 19 54 76 70 113 33z"/>
<path d="M1025 4802 c-168 -79 -174 -313 -10 -394 83 -41 184 -26 248 38 101
101 85 262 -34 341 -54 36 -145 42 -204 15z m135 -152 c37 -37 21 -94 -33
-113 -40 -15 -95 40 -80 80 19 54 76 70 113 33z"/>
<path d="M1585 4802 c-168 -79 -174 -313 -10 -394 83 -41 184 -26 248 38 101
101 85 262 -34 341 -54 36 -145 42 -204 15z m135 -152 c43 -43 12 -113 -51
-113 -57 0 -85 60 -49 106 26 33 71 36 100 7z"/>
<path d="M483 3718 c-131 -128 -160 -170 -144 -210 15 -36 262 -276 293 -283
22 -6 33 -1 59 24 45 45 35 69 -79 183 l-97 98 92 92 c50 51 96 103 102 115
24 48 -14 103 -72 103 -23 0 -53 -23 -154 -122z"/>
<path d="M973 3818 c-25 -28 -205 -488 -205 -524 0 -58 81 -90 121 -48 20 20
211 500 211 528 0 9 -11 28 -25 41 -31 32 -75 33 -102 3z"/>
<path d="M1151 3814 c-38 -49 -29 -68 81 -180 l102 -104 -102 -104 c-102 -103
-114 -125 -92 -165 5 -10 22 -24 39 -30 43 -18 67 -2 209 142 164 166 165 150
-16 330 -118 118 -142 137 -169 137 -22 0 -38 -8 -52 -26z"/>
<path d="M1687 3608 c-26 -21 -37 -61 -23 -89 21 -43 49 -50 209 -47 143 3
150 4 168 27 26 32 24 73 -4 99 -22 21 -33 22 -178 22 -109 0 -160 -4 -172
-12z"/>
<path d="M2237 3609 c-47 -28 -40 -107 11 -128 19 -8 263 -11 835 -9 l809 3
19 24 c26 32 24 73 -4 99 l-23 22 -815 0 c-550 -1 -820 -4 -832 -11z"/>
<path d="M1687 3278 c-26 -21 -37 -61 -23 -89 23 -47 41 -49 349 -47 l289 3
19 24 c26 32 24 73 -4 99 -23 22 -29 22 -318 22 -221 0 -299 -3 -312 -12z"/>
<path d="M2477 3279 c-28 -16 -40 -58 -26 -91 16 -40 62 -50 203 -46 110 3
119 5 137 27 26 32 24 73 -4 99 -22 20 -33 22 -158 22 -75 0 -142 -5 -152 -11z"/>
<path d="M2937 3279 c-49 -29 -40 -109 15 -128 20 -7 150 -11 350 -11 260 0
324 3 347 15 47 24 56 78 18 113 -23 22 -28 22 -368 22 -222 -1 -350 -4 -362
-11z"/>
<path d="M400 2910 c-27 -27 -26 -81 1 -106 19 -17 42 -19 273 -22 278 -3 307
-1 336 30 26 28 25 58 -1 92 l-20 26 -285 0 c-271 0 -285 -1 -304 -20z"/>
<path d="M1180 2910 c-27 -27 -26 -81 1 -106 20 -18 43 -19 496 -19 l475 0 19
24 c26 32 24 73 -4 99 -23 22 -24 22 -495 22 -459 0 -473 -1 -492 -20z"/>
<path d="M2976 2668 c-36 -33 -39 -75 -6 -108 19 -19 33 -20 228 -20 196 0
210 1 230 20 32 30 30 82 -4 109 -25 20 -40 21 -225 21 -191 0 -199 -1 -223
-22z"/>
<path d="M3603 2680 c-46 -19 -57 -83 -20 -118 20 -19 35 -22 110 -22 101 0
127 15 127 74 0 55 -36 76 -124 75 -39 0 -81 -4 -93 -9z"/>
<path d="M3973 2680 c-47 -19 -56 -78 -18 -115 l24 -25 281 0 281 0 24 25 c14
13 25 31 25 39 0 28 -22 64 -47 75 -29 13 -537 14 -570 1z"/>
<path d="M430 2613 c-51 -19 -68 -85 -30 -123 18 -18 33 -20 159 -20 139 0
140 0 160 26 36 46 22 93 -33 114 -28 10 -229 13 -256 3z"/>
<path d="M905 2611 c-52 -22 -66 -90 -26 -123 22 -17 48 -18 371 -18 317 0
350 2 369 18 30 24 31 76 2 105 -21 22 -27 22 -359 24 -185 1 -346 -2 -357 -6z"/>
<path d="M1815 2608 c-50 -27 -60 -80 -22 -116 21 -19 34 -22 119 -22 92 0 97
1 117 26 12 15 21 33 21 40 0 29 -25 64 -53 74 -39 13 -156 12 -182 -2z"/>
<path d="M2183 2610 c-45 -18 -57 -86 -23 -120 18 -18 33 -20 173 -20 148 0
154 1 175 23 27 29 28 67 3 98 -18 23 -25 24 -163 26 -78 1 -153 -2 -165 -7z"/>
<path d="M400 2280 c-27 -27 -26 -81 1 -106 19 -17 39 -19 246 -19 224 0 225
0 244 24 25 30 24 76 -1 101 -19 19 -33 20 -245 20 -212 0 -226 -1 -245 -20z"/>
<path d="M1015 2280 c-25 -28 -23 -76 4 -103 21 -22 27 -22 301 -22 274 0 280
0 301 22 30 30 30 80 0 105 -21 17 -46 18 -306 18 -270 0 -283 -1 -300 -20z"/>
<path d="M1779 2282 c-30 -25 -30 -75 0 -105 21 -22 27 -22 349 -25 180 -2
342 0 360 3 67 12 94 78 52 123 -21 22 -23 22 -379 22 -334 0 -360 -1 -382
-18z"/>
<path d="M2977 1858 c-41 -32 -38 -94 7 -123 21 -14 53 -16 224 -13 180 3 202
5 221 22 28 26 28 79 -1 106 -20 19 -34 20 -228 20 -149 0 -211 -3 -223 -12z"/>
<path d="M3582 1847 c-27 -29 -28 -67 -3 -98 17 -21 29 -24 103 -27 73 -3 86
-1 111 18 34 27 37 80 7 110 -17 17 -33 20 -108 20 -80 0 -91 -2 -110 -23z"/>
<path d="M3951 1844 c-26 -33 -27 -65 -2 -95 l19 -24 273 -3 c291 -3 318 0
338 44 16 37 14 52 -14 79 l-24 25 -285 0 -285 0 -20 -26z"/>
<path d="M3004 1053 c-53 -10 -75 -83 -39 -123 17 -19 30 -20 232 -20 200 0
214 1 233 20 40 40 21 103 -38 120 -35 9 -342 12 -388 3z"/>
<path d="M3617 1050 c-56 -18 -75 -77 -37 -118 18 -19 31 -22 108 -22 108 0
132 13 132 69 0 55 -24 73 -107 77 -38 2 -81 -1 -96 -6z"/>
<path d="M3987 1050 c-58 -18 -75 -79 -34 -118 23 -22 29 -22 309 -22 l287 0
20 26 c27 35 26 57 -3 91 l-24 28 -264 2 c-144 1 -276 -2 -291 -7z"/>
</g>
</svg>
