<?xml version="1.0" standalone="no"?>
<!DOCTYPE svg PUBLIC "-//W3C//DTD SVG 20010904//EN"
 "http://www.w3.org/TR/2001/REC-SVG-20010904/DTD/svg10.dtd">
<svg version="1.0" xmlns="http://www.w3.org/2000/svg"
 width="512.000000pt" height="512.000000pt" viewBox="0 0 512.000000 512.000000"
 preserveAspectRatio="xMidYMid meet">

<g transform="translate(0.000000,512.000000) scale(0.100000,-0.100000)"
fill="#fff" stroke="none">
<path d="M1105 4675 c-305 -68 -537 -278 -638 -575 l-32 -95 -3 -1412 c-3
-1546 -5 -1467 57 -1628 41 -107 100 -195 190 -286 91 -90 179 -149 286 -190
161 -62 82 -60 1628 -57 l1412 3 95 33 c141 49 231 104 330 202 100 99 158
183 201 295 58 150 59 155 59 823 0 584 -1 615 -19 650 -83 162 -299 162 -382
0 -18 -35 -19 -66 -19 -600 0 -314 -4 -589 -10 -622 -30 -183 -173 -326 -356
-356 -79 -13 -2609 -13 -2688 0 -183 30 -326 173 -356 356 -13 79 -13 2609 0
2688 30 183 173 326 356 356 33 6 308 10 619 10 524 0 563 2 600 19 164 76
166 298 3 382 -35 18 -66 19 -655 18 -479 0 -631 -4 -678 -14z"/>
<path d="M3099 4667 c-24 -13 -57 -43 -74 -66 -27 -39 -30 -50 -30 -120 0 -68
3 -82 27 -117 15 -21 44 -50 65 -64 l37 -25 420 -3 420 -3 -796 -797 c-644
-645 -798 -804 -808 -836 -18 -57 -9 -147 21 -190 54 -81 160 -116 255 -86 32
10 192 165 836 808 l797 796 3 -420 3 -420 25 -37 c14 -21 43 -50 64 -65 35
-24 49 -27 116 -27 67 0 81 3 116 27 21 15 50 44 64 65 l25 37 0 716 0 717
-27 39 c-15 21 -44 50 -65 64 l-37 25 -706 3 -706 2 -45 -23z"/>
</g>
</svg>
