<?xml version="1.0" standalone="no"?>
<!DOCTYPE svg PUBLIC "-//W3C//DTD SVG 20010904//EN"
 "http://www.w3.org/TR/2001/REC-SVG-20010904/DTD/svg10.dtd">
<svg version="1.0" xmlns="http://www.w3.org/2000/svg"
 width="512.000000pt" height="512.000000pt" viewBox="0 0 512.000000 512.000000"
 preserveAspectRatio="xMidYMid meet">

<g transform="translate(0.000000,512.000000) scale(0.100000,-0.100000)"
fill="#000000" stroke="none">
<path fill="#797b85" d="M1794 4790 c-17 -6 -79 -34 -138 -65 -665 -341 -1116 -968 -1233
-1715 -24 -160 -24 -500 0 -660 79 -501 305 -949 654 -1297 574 -569 1399
-795 2184 -598 418 106 840 356 1120 666 210 231 429 591 429 705 0 78 -75
154 -154 154 -19 0 -68 -13 -108 -29 -292 -115 -607 -166 -888 -142 -479 40
-893 224 -1230 547 -471 453 -691 1115 -581 1754 23 134 56 252 112 399 45
120 47 139 18 197 -33 69 -114 105 -185 84z"/>
</g>
</svg>
