<?xml version="1.0" standalone="no"?>
<!DOCTYPE svg PUBLIC "-//W3C//DTD SVG 20010904//EN"
 "http://www.w3.org/TR/2001/REC-SVG-20010904/DTD/svg10.dtd">
<svg version="1.0" xmlns="http://www.w3.org/2000/svg"
 width="512.000000pt" height="512.000000pt" viewBox="0 0 512.000000 512.000000"
 preserveAspectRatio="xMidYMid meet">

<g transform="translate(0.000000,512.000000) scale(0.100000,-0.100000)"
fill="#000000" stroke="none">
<path fill="#797b85"  d="M626 4789 c-62 -15 -153 -68 -197 -116 -22 -24 -55 -74 -72 -111
l-32 -67 0 -1010 0 -1010 32 -67 c56 -119 160 -201 288 -228 34 -7 374 -10
1020 -8 l970 3 58 24 c118 47 210 152 242 276 22 88 23 1931 0 2018 -33 126
-99 208 -213 264 l-76 38 -990 2 c-578 1 -1007 -3 -1030 -8z m1058 -680 c25
-19 26 -25 26 -115 l0 -94 284 0 284 0 27 -32 c31 -37 28 -71 -11 -105 -22
-21 -36 -23 -123 -23 l-98 0 -11 -38 c-33 -111 -150 -309 -251 -427 -28 -33
-51 -62 -51 -65 0 -10 128 -90 205 -129 44 -21 117 -51 163 -66 88 -29 112
-50 112 -98 0 -32 -39 -77 -68 -77 -72 0 -318 108 -444 196 -46 31 -87 57 -93
57 -5 0 -48 -26 -94 -58 -107 -72 -211 -124 -327 -164 -108 -37 -123 -38 -158
-10 -20 16 -26 29 -26 58 0 50 18 65 121 100 116 39 257 112 352 182 5 3 -24
46 -63 95 -91 114 -163 232 -210 348 l-37 91 -99 5 c-54 3 -107 10 -117 14
-43 20 -49 85 -12 121 l24 25 280 0 279 0 4 91 c3 85 5 92 31 115 34 29 66 31
101 3z"/>
<path fill="#797b85" d="M1386 3683 c49 -113 154 -272 222 -336 l29 -28 43 48 c23 26 64 80
90 118 47 70 130 226 130 245 0 6 -93 10 -270 10 l-270 0 26 -57z"/>
<path fill="#797b85" d="M3221 3844 c-28 -35 -27 -66 3 -101 24 -28 25 -28 178 -33 164 -6
179 -10 236 -64 60 -56 66 -76 72 -244 5 -153 5 -154 33 -178 35 -30 66 -31
101 -3 l28 22 -4 171 c-3 165 -4 173 -32 231 -38 77 -114 153 -191 191 -58 28
-66 29 -231 32 l-171 4 -22 -28z"/>
<path fill="#797b85" d="M3110 2738 c0 -325 -29 -418 -169 -559 -141 -140 -234 -169 -558
-169 l-213 0 0 -663 c0 -709 1 -720 51 -819 32 -63 111 -135 187 -171 l67 -32
1010 0 1010 0 67 32 c93 44 151 100 196 191 l37 76 0 1010 0 1011 -32 67 c-55
117 -159 201 -281 227 -36 7 -262 11 -712 11 l-660 0 0 -212z m424 -480 c29
-27 546 -1158 546 -1195 0 -58 -83 -94 -129 -55 -11 9 -53 89 -92 177 -39 88
-76 166 -82 173 -7 9 -78 12 -292 12 -214 0 -285 -3 -292 -12 -5 -7 -43 -86
-83 -176 -41 -90 -83 -170 -94 -178 -45 -31 -109 -7 -121 46 -5 25 36 124 255
607 163 359 271 587 287 601 13 12 35 22 48 22 13 0 35 -10 49 -22z"/>
<path fill="#797b85" d="M3377 1768 l-105 -233 210 -3 c116 -1 212 -1 214 1 4 4 -199 454
-208 463 -3 3 -53 -100 -111 -228z"/>
<path fill="#797b85" d="M1276 1899 l-28 -22 4 -171 c3 -165 4 -173 32 -231 38 -77 114 -153
191 -191 58 -28 66 -29 231 -32 l171 -4 22 28 c28 35 27 66 -3 101 -24 28 -25
28 -178 33 -164 6 -179 10 -236 64 -60 56 -66 76 -72 244 -5 153 -5 154 -33
178 -35 30 -66 31 -101 3z"/>
</g>
</svg>
