<?xml version="1.0" standalone="no"?>
<!DOCTYPE svg PUBLIC "-//W3C//DTD SVG 20010904//EN"
 "http://www.w3.org/TR/2001/REC-SVG-20010904/DTD/svg10.dtd">
<svg version="1.0" xmlns="http://www.w3.org/2000/svg"
 width="512.000000pt" height="512.000000pt" viewBox="0 0 512.000000 512.000000"
 preserveAspectRatio="xMidYMid meet">

<g transform="translate(0.000000,512.000000) scale(0.100000,-0.100000)"
fill="#000000" stroke="none">
<path fill="#797b85" d="M2495 5106 c-41 -18 -83 -69 -90 -109 -3 -18 -5 -154 -3 -304 3 -256
4 -273 24 -299 39 -53 71 -69 134 -69 63 0 95 16 134 69 20 26 21 40 21 326 0
286 -1 300 -21 326 -11 15 -32 37 -46 47 -33 25 -113 32 -153 13z"/>
<path fill="#797b85" d="M4254 4464 c-17 -8 -117 -102 -222 -207 -205 -207 -213 -220 -197
-304 9 -49 69 -109 118 -118 84 -16 97 -8 304 197 106 105 199 206 208 224 62
131 -81 272 -211 208z"/>
<path fill="#797b85" d="M816 4410 c-42 -13 -95 -68 -107 -112 -21 -80 -6 -104 204 -317 106
-106 206 -199 224 -207 129 -56 262 71 213 203 -16 41 -376 401 -425 424 -44
20 -65 22 -109 9z"/>
<path fill="#797b85" d="M2415 3994 c-322 -49 -521 -130 -740 -300 -276 -214 -468 -529 -532
-877 -24 -126 -24 -388 0 -514 109 -590 570 -1051 1160 -1160 126 -24 388 -24
514 0 518 96 941 462 1107 960 55 163 70 266 70 457 0 191 -15 294 -70 457
-166 495 -591 866 -1101 959 -86 15 -348 27 -408 18z"/>
<path fill="#797b85" d="M95 2706 c-67 -29 -105 -106 -91 -181 9 -47 59 -102 104 -116 24 -6
136 -9 314 -7 261 3 278 4 304 24 53 39 69 71 69 134 0 63 -16 95 -69 134 -26
20 -42 21 -314 23 -223 2 -294 0 -317 -11z"/>
<path fill="#797b85" d="M4415 2706 c-67 -29 -105 -106 -91 -181 9 -47 59 -102 104 -116 24
-6 136 -9 314 -7 261 3 278 4 304 24 53 39 69 71 69 134 0 63 -16 95 -69 134
-26 20 -42 21 -314 23 -223 2 -294 0 -317 -11z"/>
<path fill="#797b85" d="M1265 1451 c-51 -13 -65 -24 -257 -218 -157 -158 -188 -195 -197
-230 -32 -118 78 -227 194 -193 32 9 78 50 237 208 214 214 227 234 208 316
-10 45 -61 102 -99 111 -14 3 -33 7 -41 9 -8 2 -28 1 -45 -3z"/>
<path fill="#797b85" d="M3839 1338 c-69 -39 -97 -127 -65 -201 8 -18 101 -118 207 -224 164
-161 201 -193 237 -203 115 -30 222 77 191 193 -9 35 -41 73 -202 236 -106
106 -206 199 -224 207 -46 20 -102 17 -144 -8z"/>
<path fill="#797b85" d="M2495 786 c-41 -18 -83 -69 -90 -109 -3 -18 -5 -154 -3 -304 3 -256
4 -273 24 -299 39 -53 71 -69 134 -69 63 0 95 16 134 69 20 26 21 40 21 326 0
286 -1 300 -21 326 -11 15 -32 37 -46 47 -33 25 -113 32 -153 13z"/>
</g>
</svg>
